<?xml version="1.0" standalone="no"?>
<!DOCTYPE svg PUBLIC "-//W3C//DTD SVG 20010904//EN"
 "http://www.w3.org/TR/2001/REC-SVG-20010904/DTD/svg10.dtd">
<svg version="1.0" xmlns="http://www.w3.org/2000/svg"
 width="512.000000pt" height="512.000000pt" viewBox="0 0 512.000000 512.000000"
 preserveAspectRatio="xMidYMid meet">
<metadata>
Created by potrace 1.16, written by Peter Selinger 2001-2019
</metadata>
<g transform="translate(0.000000,512.000000) scale(0.100000,-0.100000)"
fill="#000000" stroke="none">
<path d="M290 5111 c-109 -34 -205 -117 -253 -219 l-32 -67 0 -2265 0 -2265
32 -67 c40 -85 106 -151 191 -191 l67 -32 2265 0 2265 0 67 32 c85 40 151 106
191 191 l32 67 0 2270 0 2270 -33 63 c-44 84 -108 146 -190 185 l-67 32 -2255
2 c-1240 1 -2266 -2 -2280 -6z m2540 -1226 c406 -66 683 -309 746 -655 7 -41
13 -87 14 -102 l0 -28 -309 0 -308 0 -6 50 c-19 159 -136 263 -312 279 -248
23 -426 -88 -425 -265 1 -93 84 -187 225 -254 45 -21 169 -69 276 -105 509
-174 737 -354 831 -655 19 -63 23 -95 22 -205 -1 -113 -4 -141 -27 -210 -52
-155 -126 -251 -269 -345 -166 -109 -345 -158 -613 -167 -133 -4 -194 -2 -280
11 -132 21 -322 82 -424 137 -253 137 -409 368 -437 652 l-7 67 315 0 315 0 5
-67 c18 -230 161 -336 453 -337 103 0 129 3 180 23 83 32 148 100 165 170 24
102 -8 209 -82 277 -53 47 -203 118 -393 184 -363 128 -544 228 -690 381 -115
121 -171 249 -181 414 -24 377 270 667 761 749 111 19 339 19 455 1z"/>
</g>
</svg>
